<svg xmlns="http://www.w3.org/2000/svg" width="1054" height="1022" viewBox="0 0 1054 1022" role="img" aria-label="Tessera logo">
  <rect width="1054" height="1022" fill="#0B0D10"/>

  <!-- Outer shell -->
  <polygon points="420,351 338,399 338,614 487,527 487,388 423,423" fill="#F5F7FA"/>
  <polygon points="633,353 632,420 564,387 564,529 712,614 712,399" fill="#D6DAE1"/>
  <polygon points="338,616 525,724 712,616 564,530 525,551 486,530" fill="#8C93A0"/>

  <!-- Central T -->
  <polygon
    points="526,288 632,349 632,421 563,387 563,528 488,528 488,387 422,421 422,349"
    fill="#0B0D10"
    stroke="#E0FE5B"
    stroke-width="3"
    stroke-linejoin="miter"
  />

  <!-- Bottom accent diamond -->
  <polygon points="525,507 564,529 525,551 486,529" fill="#E0FE5B"/>
</svg>
