<?xml version="1.0" encoding="UTF-8"?>
<svg xmlns="http://www.w3.org/2000/svg" xmlns:xlink="http://www.w3.org/1999/xlink" width="667.5011pt" height="453.0128pt" viewBox="0 0 667.5011 453.0128">
<defs>
<g>
<g id="glyph-0-0">
<path d="M 57.34375 -56.734375 L 36.484375 -56.734375 L 36.484375 0 L 22.453125 0 L 22.453125 -56.734375 L 1.875 -56.734375 L 1.875 -68.109375 L 57.34375 -68.109375 Z M 57.34375 -56.734375 "/>
</g>
<g id="glyph-0-1">
<path d="M 47.0625 -29.515625 L 20.109375 -29.515625 L 20.109375 -11.265625 L 51.734375 -11.265625 L 51.734375 0 L 6.078125 0 L 6.078125 -68.109375 L 51.640625 -68.109375 L 51.640625 -56.734375 L 20.109375 -56.734375 L 20.109375 -40.515625 L 47.0625 -40.515625 Z M 47.0625 -29.515625 "/>
</g>
<g id="glyph-0-2">
<path d="M 41.390625 -17.875 C 41.390625 -19.050781 41.21875 -20.113281 40.875 -21.0625 C 40.539062 -22.019531 39.878906 -22.90625 38.890625 -23.71875 C 37.910156 -24.53125 36.554688 -25.320312 34.828125 -26.09375 C 33.097656 -26.875 30.859375 -27.703125 28.109375 -28.578125 C 24.992188 -29.578125 22.054688 -30.695312 19.296875 -31.9375 C 16.535156 -33.1875 14.117188 -34.660156 12.046875 -36.359375 C 9.972656 -38.066406 8.332031 -40.023438 7.125 -42.234375 C 5.925781 -44.453125 5.328125 -47.039062 5.328125 -50 C 5.328125 -52.84375 5.941406 -55.441406 7.171875 -57.796875 C 8.410156 -60.148438 10.144531 -62.148438 12.375 -63.796875 C 14.601562 -65.453125 17.253906 -66.738281 20.328125 -67.65625 C 23.398438 -68.582031 26.773438 -69.046875 30.453125 -69.046875 C 34.222656 -69.046875 37.648438 -68.519531 40.734375 -67.46875 C 43.828125 -66.425781 46.460938 -64.96875 48.640625 -63.09375 C 50.828125 -61.226562 52.507812 -59.007812 53.6875 -56.4375 C 54.875 -53.863281 55.46875 -51.046875 55.46875 -47.984375 L 41.4375 -47.984375 C 41.4375 -49.421875 41.210938 -50.75 40.765625 -51.96875 C 40.316406 -53.1875 39.625 -54.226562 38.6875 -55.09375 C 37.75 -55.96875 36.578125 -56.644531 35.171875 -57.125 C 33.773438 -57.613281 32.125 -57.859375 30.21875 -57.859375 C 28.375 -57.859375 26.773438 -57.65625 25.421875 -57.25 C 24.066406 -56.84375 22.941406 -56.28125 22.046875 -55.5625 C 21.160156 -54.851562 20.488281 -54.015625 20.03125 -53.046875 C 19.582031 -52.078125 19.359375 -51.046875 19.359375 -49.953125 C 19.359375 -47.710938 20.503906 -45.832031 22.796875 -44.3125 C 25.085938 -42.800781 28.453125 -41.394531 32.890625 -40.09375 C 36.597656 -38.9375 39.863281 -37.65625 42.6875 -36.25 C 45.507812 -34.84375 47.863281 -33.25 49.75 -31.46875 C 51.632812 -29.695312 53.054688 -27.703125 54.015625 -25.484375 C 54.984375 -23.273438 55.46875 -20.769531 55.46875 -17.96875 C 55.46875 -14.96875 54.882812 -12.296875 53.71875 -9.953125 C 52.550781 -7.617188 50.890625 -5.648438 48.734375 -4.046875 C 46.585938 -2.441406 43.992188 -1.207031 40.953125 -0.34375 C 37.910156 0.507812 34.519531 0.9375 30.78125 0.9375 C 28.53125 0.9375 26.28125 0.738281 24.03125 0.34375 C 21.789062 -0.0390625 19.648438 -0.640625 17.609375 -1.453125 C 15.566406 -2.265625 13.671875 -3.273438 11.921875 -4.484375 C 10.179688 -5.703125 8.660156 -7.132812 7.359375 -8.78125 C 6.066406 -10.4375 5.054688 -12.316406 4.328125 -14.421875 C 3.597656 -16.535156 3.234375 -18.867188 3.234375 -21.421875 L 17.3125 -21.421875 C 17.3125 -19.367188 17.632812 -17.625 18.28125 -16.1875 C 18.9375 -14.75 19.847656 -13.582031 21.015625 -12.6875 C 22.191406 -11.800781 23.601562 -11.15625 25.25 -10.75 C 26.90625 -10.351562 28.75 -10.15625 30.78125 -10.15625 C 32.582031 -10.15625 34.15625 -10.347656 35.5 -10.734375 C 36.84375 -11.117188 37.953125 -11.65625 38.828125 -12.34375 C 39.703125 -13.03125 40.347656 -13.847656 40.765625 -14.796875 C 41.179688 -15.753906 41.390625 -16.78125 41.390625 -17.875 Z M 41.390625 -17.875 "/>
</g>
<g id="glyph-0-3">
<path d="M 31.296875 -24.9375 L 20.109375 -24.9375 L 20.109375 0 L 6.078125 0 L 6.078125 -68.109375 L 31.390625 -68.109375 C 35.316406 -68.109375 38.835938 -67.660156 41.953125 -66.765625 C 45.078125 -65.878906 47.710938 -64.570312 49.859375 -62.84375 C 52.015625 -61.113281 53.664062 -58.96875 54.8125 -56.40625 C 55.96875 -53.851562 56.546875 -50.894531 56.546875 -47.53125 C 56.546875 -45.03125 56.265625 -42.789062 55.703125 -40.8125 C 55.148438 -38.832031 54.34375 -37.066406 53.28125 -35.515625 C 52.21875 -33.972656 50.9375 -32.625 49.4375 -31.46875 C 47.945312 -30.320312 46.265625 -29.328125 44.390625 -28.484375 L 59.125 -0.65625 L 59.125 0 L 44.0625 0 Z M 20.109375 -36.296875 L 31.4375 -36.296875 C 33.269531 -36.296875 34.878906 -36.535156 36.265625 -37.015625 C 37.660156 -37.503906 38.816406 -38.191406 39.734375 -39.078125 C 40.648438 -39.972656 41.34375 -41.035156 41.8125 -42.265625 C 42.28125 -43.492188 42.515625 -44.875 42.515625 -46.40625 C 42.515625 -49.613281 41.601562 -52.132812 39.78125 -53.96875 C 37.957031 -55.8125 35.160156 -56.734375 31.390625 -56.734375 L 20.109375 -56.734375 Z M 20.109375 -36.296875 "/>
</g>
<g id="glyph-0-4">
<path d="M 44.53125 -14.03125 L 19.921875 -14.03125 L 15.25 0 L 0.328125 0 L 25.6875 -68.109375 L 38.6875 -68.109375 L 64.171875 0 L 49.25 0 Z M 23.71875 -25.40625 L 40.734375 -25.40625 L 32.1875 -50.890625 Z M 23.71875 -25.40625 "/>
</g>
</g>
<clipPath id="clip-0">
<path clip-rule="nonzero" d="M 257 202 L 346 202 L 346 248 L 257 248 Z M 257 202 "/>
</clipPath>
<clipPath id="clip-1">
<path clip-rule="nonzero" d="M 248.421875 219.15625 L 265.300781 185.777344 L 354.496094 230.875 L 337.617188 264.253906 Z M 248.421875 219.15625 "/>
</clipPath>
<clipPath id="clip-2">
<path clip-rule="nonzero" d="M 249.472656 198.472656 L 266.0625 198.472656 L 266.0625 209.109375 L 249.472656 209.109375 Z M 249.472656 198.472656 "/>
</clipPath>
<clipPath id="clip-3">
<path clip-rule="nonzero" d="M 280.765625 202.773438 L 298.058594 202.773438 L 298.058594 211.460938 L 280.765625 211.460938 Z M 280.765625 202.773438 "/>
</clipPath>
<clipPath id="clip-4">
<path clip-rule="nonzero" d="M 269.246094 215.097656 L 298.777344 215.097656 L 298.777344 244.789062 L 269.246094 244.789062 Z M 269.246094 215.097656 "/>
</clipPath>
<clipPath id="clip-5">
<path clip-rule="nonzero" d="M 304.699219 205.351562 L 332.140625 205.351562 L 332.140625 233.015625 L 304.699219 233.015625 Z M 304.699219 205.351562 "/>
</clipPath>
<clipPath id="clip-6">
<path clip-rule="nonzero" d="M 303.414062 238.832031 L 321.917969 238.832031 L 321.917969 247.554688 L 303.414062 247.554688 Z M 303.414062 238.832031 "/>
</clipPath>
<clipPath id="clip-7">
<path clip-rule="nonzero" d="M 337.414062 240.539062 L 354.140625 240.539062 L 354.140625 251.878906 L 337.414062 251.878906 Z M 337.414062 240.539062 "/>
</clipPath>
</defs>
<path fill-rule="nonzero" fill="rgb(96.078491%, 96.862793%, 98.039246%)" fill-opacity="1" d="M 37.394531 415.109375 L 629.605469 415.109375 L 629.605469 36.917969 L 37.394531 36.917969 Z M 37.394531 415.109375 "/>
<g fill="rgb(4.31366%, 5.097961%, 6.274414%)" fill-opacity="1">
<use xlink:href="#glyph-0-0" x="128.308247" y="258.505468"/>
<use xlink:href="#glyph-0-1" x="187.574296" y="258.505468"/>
<use xlink:href="#glyph-0-2" x="241.476034" y="258.505468"/>
<use xlink:href="#glyph-0-2" x="300.358917" y="258.505468"/>
<use xlink:href="#glyph-0-1" x="359.2418" y="258.505468"/>
<use xlink:href="#glyph-0-3" x="413.143538" y="258.505468"/>
</g>
<g fill="rgb(4.31366%, 5.097961%, 6.274414%)" fill-opacity="1">
<use xlink:href="#glyph-0-4" x="474.325411" y="258.505468"/>
</g>
<g clip-path="url(#clip-0)">
<g clip-path="url(#clip-1)">
<path fill-rule="nonzero" fill="rgb(96.078491%, 96.862793%, 98.039246%)" fill-opacity="1" d="M 293.472656 240.816406 L 345.167969 247.117188 L 309.445312 209.21875 L 257.75 202.917969 Z M 293.472656 240.816406 "/>
</g>
</g>
<g clip-path="url(#clip-2)">
<path fill="none" stroke-width="5" stroke-linecap="butt" stroke-linejoin="miter" stroke="rgb(84.706116%, 100%, 16.470337%)" stroke-opacity="1" stroke-miterlimit="4" d="M 3.469084 3.319179 L 0.000604335 -0.000539624 L 5.673095 0.782413 " transform="matrix(0.997826, 0, 0, 0.997826, 257.768928, 202.996632)"/>
</g>
<g clip-path="url(#clip-3)">
<path fill="none" stroke-width="5" stroke-linecap="butt" stroke-linejoin="miter" stroke="rgb(84.706116%, 100%, 16.470337%)" stroke-opacity="1" stroke-miterlimit="4" d="M -0.0011175 0.000757499 L 14.741878 1.742827 " transform="matrix(0.997826, 0, 0, 0.997826, 282.055803, 206.249244)"/>
</g>
<g clip-path="url(#clip-4)">
<path fill="none" stroke-width="5" stroke-linecap="butt" stroke-linejoin="miter" stroke="rgb(84.706116%, 100%, 16.470337%)" stroke-opacity="1" stroke-miterlimit="4" d="M 0.000475862 0.00156912 L 22.0171 23.169133 L 25.516898 23.544951 " transform="matrix(0.997826, 0, 0, 0.997826, 272.050306, 217.814841)"/>
</g>
<g clip-path="url(#clip-5)">
<path fill="none" stroke-width="5" stroke-linecap="butt" stroke-linejoin="miter" stroke="rgb(84.706116%, 100%, 16.470337%)" stroke-opacity="1" stroke-miterlimit="4" d="M -0.00171224 -0.000499282 L 3.364983 0.383147 L 23.404652 21.522865 " transform="matrix(0.997826, 0, 0, 0.997826, 305.978271, 208.828623)"/>
</g>
<g clip-path="url(#clip-6)">
<path fill="none" stroke-width="5" stroke-linecap="butt" stroke-linejoin="miter" stroke="rgb(84.706116%, 100%, 16.470337%)" stroke-opacity="1" stroke-miterlimit="4" d="M 0.000316154 0.000229699 L 15.992121 1.773617 " transform="matrix(0.997826, 0, 0, 0.997826, 304.687185, 242.308365)"/>
</g>
<g clip-path="url(#clip-7)">
<path fill="none" stroke-width="5" stroke-linecap="butt" stroke-linejoin="miter" stroke="rgb(84.706116%, 100%, 16.470337%)" stroke-opacity="1" stroke-miterlimit="4" d="M -0.000699547 3.105393 L 7.073276 4.044936 L 2.778782 0.000986036 " transform="matrix(0.997826, 0, 0, 0.997826, 338.738979, 243.354485)"/>
</g>
</svg>
