<?xml version="1.0" encoding="UTF-8"?>
<svg xmlns="http://www.w3.org/2000/svg" xmlns:xlink="http://www.w3.org/1999/xlink" width="367.8828pt" height="221.7863pt" viewBox="0 0 367.8828 221.7863">
<defs>
<g>
<g id="glyph-0-0">
<path d="M 21.859375 0 L 21.859375 -55.625 L 2.296875 -55.625 L 2.296875 -67.140625 L 54.09375 -67.140625 L 54.09375 -55.625 L 34.53125 -55.625 L 34.53125 0 Z M 21.859375 0 "/>
</g>
<g id="glyph-0-1">
<path d="M 6.328125 0 L 6.328125 -67.140625 L 49.484375 -67.140625 L 49.484375 -55.625 L 18.984375 -55.625 L 18.984375 -39.609375 L 46.796875 -39.609375 L 46.796875 -28.09375 L 18.984375 -28.09375 L 18.984375 -11.515625 L 50.0625 -11.515625 L 50.0625 0 Z M 6.328125 0 "/>
</g>
<g id="glyph-0-2">
<path d="M 29.640625 1.34375 C 24.453125 1.34375 19.875 0.414062 15.90625 -1.4375 C 11.945312 -3.289062 8.847656 -5.941406 6.609375 -9.390625 C 4.378906 -12.847656 3.265625 -17.003906 3.265625 -21.859375 L 3.265625 -24.546875 L 15.734375 -24.546875 L 15.734375 -21.859375 C 15.734375 -17.835938 16.976562 -14.816406 19.46875 -12.796875 C 21.957031 -10.785156 25.347656 -9.78125 29.640625 -9.78125 C 33.984375 -9.78125 37.222656 -10.644531 39.359375 -12.375 C 41.503906 -14.101562 42.578125 -16.304688 42.578125 -18.984375 C 42.578125 -20.835938 42.050781 -22.335938 41 -23.484375 C 39.945312 -24.640625 38.410156 -25.582031 36.390625 -26.3125 C 34.378906 -27.050781 31.9375 -27.742188 29.0625 -28.390625 L 26.859375 -28.875 C 22.253906 -29.894531 18.300781 -31.1875 15 -32.75 C 11.707031 -34.320312 9.179688 -36.382812 7.421875 -38.9375 C 5.671875 -41.5 4.796875 -44.820312 4.796875 -48.90625 C 4.796875 -53 5.769531 -56.5 7.71875 -59.40625 C 9.664062 -62.320312 12.414062 -64.5625 15.96875 -66.125 C 19.519531 -67.695312 23.691406 -68.484375 28.484375 -68.484375 C 33.273438 -68.484375 37.539062 -67.664062 41.28125 -66.03125 C 45.019531 -64.394531 47.960938 -61.960938 50.109375 -58.734375 C 52.253906 -55.515625 53.328125 -51.472656 53.328125 -46.609375 L 53.328125 -43.734375 L 40.859375 -43.734375 L 40.859375 -46.609375 C 40.859375 -49.171875 40.363281 -51.234375 39.375 -52.796875 C 38.382812 -54.359375 36.960938 -55.507812 35.109375 -56.25 C 33.253906 -56.988281 31.046875 -57.359375 28.484375 -57.359375 C 24.648438 -57.359375 21.820312 -56.632812 20 -55.1875 C 18.175781 -53.75 17.265625 -51.785156 17.265625 -49.296875 C 17.265625 -47.628906 17.695312 -46.21875 18.5625 -45.0625 C 19.425781 -43.914062 20.71875 -42.957031 22.4375 -42.1875 C 24.164062 -41.425781 26.375 -40.757812 29.0625 -40.1875 L 31.265625 -39.703125 C 36.054688 -38.679688 40.226562 -37.367188 43.78125 -35.765625 C 47.332031 -34.171875 50.097656 -32.0625 52.078125 -29.4375 C 54.054688 -26.820312 55.046875 -23.46875 55.046875 -19.375 C 55.046875 -15.28125 54.003906 -11.679688 51.921875 -8.578125 C 49.847656 -5.484375 46.910156 -3.054688 43.109375 -1.296875 C 39.304688 0.460938 34.816406 1.34375 29.640625 1.34375 Z M 29.640625 1.34375 "/>
</g>
</g>
<clipPath id="clip-0">
<path clip-rule="nonzero" d="M 195 88 L 284 88 L 284 133 L 195 133 Z M 195 88 "/>
</clipPath>
<clipPath id="clip-1">
<path clip-rule="nonzero" d="M 186.617188 104.917969 L 203.511719 71.5 L 292.816406 116.65625 L 275.917969 150.074219 Z M 186.617188 104.917969 "/>
</clipPath>
</defs>
<path fill-rule="nonzero" fill="rgb(96.078491%, 96.862793%, 98.039246%)" fill-opacity="1" d="M 37.082031 184.609375 L 330.683594 184.609375 L 330.683594 36.964844 L 37.082031 36.964844 Z M 37.082031 184.609375 "/>
<g fill="rgb(4.31366%, 5.097961%, 6.274414%)" fill-opacity="1">
<use xlink:href="#glyph-0-0" x="70.999624" y="144.720936"/>
<use xlink:href="#glyph-0-1" x="127.393286" y="144.720936"/>
<use xlink:href="#glyph-0-2" x="180.526091" y="144.720936"/>
<use xlink:href="#glyph-0-2" x="238.64609" y="144.720936"/>
</g>
<g clip-path="url(#clip-0)">
<g clip-path="url(#clip-1)">
<path fill-rule="nonzero" fill="rgb(96.078491%, 96.862793%, 98.039246%)" fill-opacity="1" d="M 231.71875 126.605469 L 283.476562 132.914062 L 247.714844 94.96875 L 195.957031 88.660156 Z M 231.71875 126.605469 "/>
</g>
</g>
</svg>
